<svg width="12" height="12" viewBox="0 0 12 12" fill="none" xmlns="http://www.w3.org/2000/svg">
<path fill-rule="evenodd" clip-rule="evenodd" d="M1.229 4.506C1.0805 4.9795 1 5.4835 1 6.006C1 8.766 3.2405 11.006 6 11.006C8.76 11.006 11 8.766 11 6.006C11 3.2465 8.76 1.006 6 1.006C4.9395 1.006 3.9585 1.34 3.1485 1.904L4 3.006H0.71L1.6775 0L2.5365 1.1115C3.5155 0.417 4.7095 0.006 6 0.006C9.3115 0.006 12 2.6945 12 6.006C12 9.3175 9.3115 12 6 12C2.6885 12 0 9.3175 0 6.006C0 5.488 0.066 4.9855 0.1895 4.506H1.229ZM6.404 3C6.55 3.4105 6.5915 3.673 6.909 3.8045C7.2275 3.9365 7.4455 3.7785 7.836 3.593L8.407 4.164C8.2205 4.5575 8.0635 4.773 8.1955 5.091C8.3265 5.408 8.5875 5.449 9 5.5955V6.404C8.592 6.549 8.3265 6.5915 8.195 6.909C8.063 7.227 8.221 7.4445 8.407 7.8355L7.836 8.4065C7.441 8.219 7.2265 8.063 6.911 8.1945C6.5915 8.327 6.5495 8.591 6.404 9H5.596C5.45 8.5895 5.4085 8.3265 5.091 8.195C4.7725 8.063 4.555 8.221 4.164 8.4065L3.593 7.8355C3.776 7.45 3.9375 7.2295 3.8045 6.9085C3.673 6.591 3.408 6.549 3 6.404V5.5955C3.4085 5.4505 3.673 5.409 3.8045 5.091C3.9365 4.7725 3.779 4.556 3.593 4.164L4.164 3.593C4.558 3.78 4.773 3.9365 5.091 3.8045C5.4085 3.673 5.4505 3.4085 5.596 3H6.404ZM6 7C5.4475 7 5 6.552 5 6C5 5.4475 5.4475 4.9995 6 4.9995C6.552 4.9995 7 5.4475 7 6C7 6.552 6.552 7 6 7Z" fill="#1F1F1F"/>
</svg>
